# xmcd CD database file
#
# Track frame offsets:
#	150
#	15800
#	35212
#	53775
#	74812
#	98950
#	118400
#	140200
#	160975
#	178987
#
# Disc length: 2613 seconds
#
# Revision: 2
# Processed by: cddbd v1.4PL0 Copyright (c) Steve Scherf et al.
# Submitted via: CDex 1.40PlusFr
#
DISCID=9b0a330a
DTITLE=Joe Louis Walker - The Gift
DYEAR=1988
DGENRE=Blues
TTITLE0=One Time Around
TTITLE1=Thin Line
TTITLE2=747
TTITLE3=The Gift
TTITLE4=What About You
TTITLE5=Shade Tree Mechanic
TTITLE6=1/4 to 3
TTITLE7=Mama Didn't Raise No Fool
TTITLE8=Everybody's Had the Blues
TTITLE9=Main Goal
EXTD=YEAR: 1988 ID3G: 0
EXTT0=
EXTT1=
EXTT2=
EXTT3=
EXTT4=
EXTT5=
EXTT6=
EXTT7=
EXTT8=
EXTT9=
PLAYORDER=
